HIERARCHY
ROOT Hips
{
	OFFSET 0.000000 83.214638 0.000000
	CHANNELS 6 Xposition Yposition Zposition Xrotation Yrotation Zrotation
	JOINT Pelvis
	{
		OFFSET 0.000000 0.000000 0.000000
		CHANNELS 3 Xrotation Yrotation Zrotation
		JOINT LeftUpLeg
		{
			OFFSET 8.479700 -4.795502 -0.379100
			CHANNELS 3 Xrotation Yrotation Zrotation
			JOINT LeftLeg
			{
				OFFSET 0.024144 -32.555107 0.112900
				CHANNELS 3 Xrotation Yrotation Zrotation
				JOINT LeftFoot
				{
					OFFSET -0.024144 -32.638630 -3.012600
					CHANNELS 3 Xrotation Yrotation Zrotation
					JOINT LeftToeBase
					{
						OFFSET 0.970200 -13.225400 11.864200
						CHANNELS 3 Xrotation Yrotation Zrotation
						End Site
						{
							OFFSET 0.000000 12.319262 0.000000
						}
					}
					JOINT LFootTongue
					{
						OFFSET 1.142400 -1.059800 6.665200
						CHANNELS 3 Xrotation Yrotation Zrotation
						End Site
						{
							OFFSET 0.000000 12.319262 0.000000
						}
					}
				}
				JOINT LeftPantLeg
				{
					OFFSET 0.918482 -16.533964 -2.284700
					CHANNELS 3 Xrotation Yrotation Zrotation
					End Site
					{
						OFFSET 0.350399 24.744368 0.000000
					}
				}
			}
		}
		JOINT RightUpLeg
		{
			OFFSET -8.479700 -4.795502 -0.379100
			CHANNELS 3 Xrotation Yrotation Zrotation
			JOINT RightLeg
			{
				OFFSET -0.023144 -32.555092 0.112900
				CHANNELS 3 Xrotation Yrotation Zrotation
				JOINT RightFoot
				{
					OFFSET 0.023144 -32.638641 -3.012700
					CHANNELS 3 Xrotation Yrotation Zrotation
					JOINT RightToeBase
					{
						OFFSET -0.970200 -13.225400 11.864200
						CHANNELS 3 Xrotation Yrotation Zrotation
						End Site
						{
							OFFSET 0.000000 12.319244 0.000000
						}
					}
					JOINT RFootTongue
					{
						OFFSET -1.142200 -1.059800 6.665200
						CHANNELS 3 Xrotation Yrotation Zrotation
						End Site
						{
							OFFSET 0.000000 12.319243 0.000000
						}
					}
				}
				JOINT RightPantLeg
				{
					OFFSET -0.919482 -16.533978 -2.284800
					CHANNELS 3 Xrotation Yrotation Zrotation
					End Site
					{
						OFFSET -0.350400 24.744419 0.000000
					}
				}
			}
		}
	}
	JOINT Spine
	{
		OFFSET 0.000000 7.722000 1.166200
		CHANNELS 3 Xrotation Yrotation Zrotation
		JOINT Spine1
		{
			OFFSET 0.000000 12.024101 0.248800
			CHANNELS 3 Xrotation Yrotation Zrotation
			JOINT Spine2
			{
				OFFSET 0.000000 11.502998 -0.491200
				CHANNELS 3 Xrotation Yrotation Zrotation
				JOINT Neck
				{
					OFFSET 0.000000 18.430702 -3.123100
					CHANNELS 3 Xrotation Yrotation Zrotation
					JOINT Head
					{
						OFFSET 0.000000 9.051102 1.034000
						CHANNELS 3 Xrotation Yrotation Zrotation
						JOINT HairB
						{
							OFFSET 0.208400 24.786102 24.822300
							CHANNELS 3 Xrotation Yrotation Zrotation
							End Site
							{
								OFFSET 0.000000 32.263779 0.000000
							}
						}
						JOINT HairA
						{
							OFFSET -7.081100 24.428299 23.196600
							CHANNELS 3 Xrotation Yrotation Zrotation
							End Site
							{
								OFFSET 0.000000 32.263779 0.000000
							}
						}
						JOINT Hat
						{
							OFFSET 16.728800 15.048294 -15.439601
							CHANNELS 3 Xrotation Yrotation Zrotation
							End Site
							{
								OFFSET 0.000000 32.263779 0.000000
							}
						}
					}
				}
				JOINT LeftShoulder
				{
					OFFSET 6.197800 13.665199 -4.064700
					CHANNELS 3 Xrotation Yrotation Zrotation
					JOINT LeftArm
					{
						OFFSET 7.778100 -0.187103 -1.709300
						CHANNELS 3 Xrotation Yrotation Zrotation
						JOINT LeftForeArm
						{
							OFFSET 22.049376 0.000000 0.000000
							CHANNELS 3 Xrotation Yrotation Zrotation
							JOINT LeftHand
							{
								OFFSET 23.009392 0.000000 0.000000
								CHANNELS 3 Xrotation Yrotation Zrotation
								JOINT LeftHandThumb1
								{
									OFFSET 3.507191 -2.063065 3.133727
									CHANNELS 3 Xrotation Yrotation Zrotation
									JOINT LeftHandThumb2
									{
										OFFSET 3.101337 -1.790558 1.790558
										CHANNELS 3 Xrotation Yrotation Zrotation
										JOINT LeftHandThumb3
										{
											OFFSET 3.058640 -1.765907 1.765906
											CHANNELS 3 Xrotation Yrotation Zrotation
											End Site
											{
												OFFSET -0.415260 3.926476 -0.049563
											}
										}
									}
								}
								JOINT LeftHandIndex1
								{
									OFFSET 11.334419 -0.901459 3.706815
									CHANNELS 3 Xrotation Yrotation Zrotation
									JOINT LeftHandIndex2
									{
										OFFSET 3.283112 0.000000 0.000000
										CHANNELS 3 Xrotation Yrotation Zrotation
										JOINT LeftHandIndex3
										{
											OFFSET 3.323853 0.000000 0.000000
											CHANNELS 3 Xrotation Yrotation Zrotation
											End Site
											{
												OFFSET -1.135597 3.097809 0.402452
											}
										}
									}
								}
								JOINT LeftHandMiddle1
								{
									OFFSET 11.335861 0.000000 0.000000
									CHANNELS 3 Xrotation Yrotation Zrotation
									JOINT LeftHandMiddle2
									{
										OFFSET 3.410492 0.000000 0.000000
										CHANNELS 3 Xrotation Yrotation Zrotation
										JOINT LeftHandMiddle3
										{
											OFFSET 3.312172 0.000000 0.000000
											CHANNELS 3 Xrotation Yrotation Zrotation
											End Site
											{
												OFFSET -1.150200 3.080154 0.400270
											}
										}
									}
								}
								JOINT LeftHandRing1
								{
									OFFSET 11.514786 -0.013176 -3.003090
									CHANNELS 3 Xrotation Yrotation Zrotation
									JOINT LeftHandRing2
									{
										OFFSET 3.053307 0.000000 0.000000
										CHANNELS 3 Xrotation Yrotation Zrotation
										JOINT LeftHandRing3
										{
											OFFSET 3.295807 0.000000 0.000000
											CHANNELS 3 Xrotation Yrotation Zrotation
											End Site
											{
												OFFSET -1.281006 3.013344 0.375733
											}
										}
									}
								}
								JOINT LeftHandPinky1
								{
									OFFSET 10.518692 -0.960396 -5.730441
									CHANNELS 3 Xrotation Yrotation Zrotation
									JOINT LeftHandPinky2
									{
										OFFSET 2.861649 0.000000 0.000000
										CHANNELS 3 Xrotation Yrotation Zrotation
										JOINT LeftHandPinky3
										{
											OFFSET 2.863380 0.000000 0.000000
											CHANNELS 3 Xrotation Yrotation Zrotation
											End Site
											{
												OFFSET -0.843597 2.711159 0.369971
											}
										}
									}
								}
							}
							JOINT LSleeve
							{
								OFFSET 6.676277 -0.344902 -1.011730
								CHANNELS 3 Xrotation Yrotation Zrotation
								End Site
								{
									OFFSET 0.000000 14.885353 0.000000
								}
							}
						}
					}
				}
				JOINT RightShoulder
				{
					OFFSET -6.197800 13.665199 -4.064700
					CHANNELS 3 Xrotation Yrotation Zrotation
					JOINT RightArm
					{
						OFFSET -7.778100 -0.187103 -1.709300
						CHANNELS 3 Xrotation Yrotation Zrotation
						JOINT RightForeArm
						{
							OFFSET -22.049376 0.000000 0.000000
							CHANNELS 3 Xrotation Yrotation Zrotation
							JOINT RightHand
							{
								OFFSET -23.009392 0.000000 0.000000
								CHANNELS 3 Xrotation Yrotation Zrotation
								JOINT RightHandThumb1
								{
									OFFSET -3.507191 -2.063065 3.133727
									CHANNELS 3 Xrotation Yrotation Zrotation
									JOINT RightHandThumb2
									{
										OFFSET -3.101337 -1.790558 1.790558
										CHANNELS 3 Xrotation Yrotation Zrotation
										JOINT RightHandThumb3
										{
											OFFSET -3.058640 -1.765907 1.765906
											CHANNELS 3 Xrotation Yrotation Zrotation
											End Site
											{
												OFFSET 0.415260 3.926476 -0.049563
											}
										}
									}
								}
								JOINT RightHandIndex1
								{
									OFFSET -11.334419 -0.901459 3.706815
									CHANNELS 3 Xrotation Yrotation Zrotation
									JOINT RightHandIndex2
									{
										OFFSET -3.283112 0.000000 0.000000
										CHANNELS 3 Xrotation Yrotation Zrotation
										JOINT RightHandIndex3
										{
											OFFSET -3.323853 0.000000 0.000000
											CHANNELS 3 Xrotation Yrotation Zrotation
											End Site
											{
												OFFSET 1.135597 3.097809 0.402452
											}
										}
									}
								}
								JOINT RightHandMiddle1
								{
									OFFSET -11.335861 0.000000 0.000000
									CHANNELS 3 Xrotation Yrotation Zrotation
									JOINT RightHandMiddle2
									{
										OFFSET -3.410492 0.000000 0.000000
										CHANNELS 3 Xrotation Yrotation Zrotation
										JOINT RightHandMiddle3
										{
											OFFSET -3.312172 0.000000 0.000000
											CHANNELS 3 Xrotation Yrotation Zrotation
											End Site
											{
												OFFSET 1.150200 3.080154 0.400270
											}
										}
									}
								}
								JOINT RightHandRing1
								{
									OFFSET -11.514786 -0.013176 -3.003090
									CHANNELS 3 Xrotation Yrotation Zrotation
									JOINT RightHandRing2
									{
										OFFSET -3.053307 0.000000 0.000000
										CHANNELS 3 Xrotation Yrotation Zrotation
										JOINT RightHandRing3
										{
											OFFSET -3.295807 0.000000 0.000000
											CHANNELS 3 Xrotation Yrotation Zrotation
											End Site
											{
												OFFSET 1.281006 3.013344 0.375733
											}
										}
									}
								}
								JOINT RightHandPinky1
								{
									OFFSET -10.518692 -0.960396 -5.730441
									CHANNELS 3 Xrotation Yrotation Zrotation
									JOINT RightHandPinky2
									{
										OFFSET -2.861649 0.000000 0.000000
										CHANNELS 3 Xrotation Yrotation Zrotation
										JOINT RightHandPinky3
										{
											OFFSET -2.863380 0.000000 0.000000
											CHANNELS 3 Xrotation Yrotation Zrotation
											End Site
											{
												OFFSET 0.843597 2.711159 0.369971
											}
										}
									}
								}
							}
							JOINT RSleeve
							{
								OFFSET -6.676277 -0.344902 -1.011730
								CHANNELS 3 Xrotation Yrotation Zrotation
								End Site
								{
									OFFSET 0.000000 14.885353 0.000000
								}
							}
						}
					}
				}
				JOINT Backpack
				{
					OFFSET 0.000000 -2.471497 36.677502
					CHANNELS 3 Xrotation Yrotation Zrotation
					End Site
					{
						OFFSET 0.000000 20.427315 0.000000
					}
				}
				JOINT Hood
				{
					OFFSET 0.000000 18.754097 -10.431000
					CHANNELS 3 Xrotation Yrotation Zrotation
					JOINT Hood1
					{
						OFFSET 0.000000 -5.011002 -7.685901
						CHANNELS 3 Xrotation Yrotation Zrotation
						End Site
						{
							OFFSET 0.000000 9.175140 0.000000
						}
					}
				}
				JOINT LHoodieString
				{
					OFFSET 5.250500 16.397697 3.089900
					CHANNELS 3 Xrotation Yrotation Zrotation
					JOINT LHoodieString1
					{
						OFFSET 0.257700 -6.364304 3.694600
						CHANNELS 3 Xrotation Yrotation Zrotation
						JOINT LHoodieString2
						{
							OFFSET 0.000000 -9.643799 2.679100
							CHANNELS 3 Xrotation Yrotation Zrotation
							End Site
							{
								OFFSET 0.000000 10.009018 0.000000
							}
						}
					}
				}
				JOINT RHoodieString
				{
					OFFSET -5.250500 16.397697 3.089900
					CHANNELS 3 Xrotation Yrotation Zrotation
					JOINT RHoodieString1
					{
						OFFSET -0.257700 -6.364304 3.694600
						CHANNELS 3 Xrotation Yrotation Zrotation
						JOINT RHoodieString2
						{
							OFFSET 0.000000 -9.643799 2.679100
							CHANNELS 3 Xrotation Yrotation Zrotation
							End Site
							{
								OFFSET 0.000000 10.009018 0.000000
							}
						}
					}
				}
			}
			JOINT LBackpack_Strap
			{
				OFFSET 15.223200 -7.719803 -6.610900
				CHANNELS 3 Xrotation Yrotation Zrotation
				End Site
				{
					OFFSET 0.000000 16.040596 0.000000
				}
			}
			JOINT RBackpack_Strap
			{
				OFFSET -15.223000 -7.719803 -6.610900
				CHANNELS 3 Xrotation Yrotation Zrotation
				End Site
				{
					OFFSET 0.000000 16.040596 0.000000
				}
			}
		}
	}
	JOINT BoyFacialAnim_Joint
	{
		OFFSET 1.000000 -82.208099 -1.550900
		CHANNELS 3 Xrotation Yrotation Zrotation
		End Site
		{
			OFFSET 0.000000 30.012791 0.000000
		}
	}
}
MOTION
Frames: 4
Frame Time: 0.033333
-0.047341 81.179550 78.865616 -0.202960 3.217678 -1.218452 0.000000 -0.000000 0.000000 2.854053 7.233258 1.912460 28.765301 -16.040023 -1.314073 24.043115 3.139890 5.610075 -0.000001 0.000000 0.000000 -0.000001 0.000000 0.000000 -0.000002 0.000000 0.000000 -33.330985 -5.168115 5.880466 32.613723 -6.264469 -0.495597 27.213538 -0.708231 -7.748416 0.000001 0.000000 0.000000 0.000001 0.000000 0.000000 0.000000 0.000000 -0.000000 0.149471 -1.744049 -2.925821 -0.171159 -1.445419 1.878174 -0.128134 -1.457106 1.903680 -8.768233 -1.081571 0.839369 3.340301 2.188014 1.532816 -0.000000 0.000000 0.000000 -0.000000 0.000000 0.000000 -0.000000 0.000000 0.000000 1.059779 0.716436 -2.647305 -4.671460 -15.223691 -76.208457 4.412324 -19.224131 0.754610 0.101745 -9.873885 1.510209 20.445995 4.260673 17.184693 -5.737381 25.675376 -7.046620 0.000000 -0.000003 -0.000001 3.789393 -5.517434 -2.120875 -2.157939 2.436203 -9.490370 -0.000001 -0.000003 -0.000001 -0.351457 7.705620 -9.350707 0.251737 5.075035 -20.044102 0.000002 -0.000001 -0.000002 -3.872065 11.735078 -7.156423 4.022683 4.044565 -27.167192 0.000003 -0.000002 -0.000001 -5.514707 12.765519 -16.715346 10.714989 2.553432 -25.864207 0.000002 0.000000 -0.000002 0.000000 -0.000002 0.000001 0.302635 2.326905 6.938099 1.412892 -1.821315 74.476308 11.240352 8.441408 -4.630355 -0.243404 0.557414 0.253766 14.764207 -6.760089 -14.920979 -6.303682 -24.803870 7.037249 0.000001 0.000002 -0.000002 1.423191 -1.690199 13.158429 -2.152030 -2.434805 16.290560 -0.000000 0.000001 0.000004 -2.695037 -3.989990 18.437973 0.253318 -5.061424 24.567893 0.000001 0.000000 0.000003 -5.081840 -8.751686 17.261329 4.033753 -4.034484 32.381240 -0.000001 0.000001 0.000000 -6.396856 -10.149669 26.675224 10.686020 -2.545162 30.801677 -0.000003 -0.000001 0.000002 0.000001 0.000001 -0.000000 -0.000000 0.000000 0.000000 -0.000000 0.000000 0.000000 -0.000000 0.000000 0.000000 -0.000000 0.000000 0.000000 -0.000000 0.000000 0.000000 -0.000000 0.000000 -0.000000 -0.000000 0.000000 0.000000 -0.000000 0.000000 0.000000 -0.000000 0.000000 -0.000000 -0.000000 0.000000 -0.000000 -0.000000 0.000000 -0.000000 0.000000 -0.000000 0.000000 
-0.239843 80.847015 81.680656 -1.775862 3.351312 -3.502602 -0.000000 -0.000000 0.000000 0.843735 4.278040 4.722777 29.825414 -18.904589 -1.576777 42.753204 2.561756 -1.719025 0.000000 0.000000 0.000000 0.000000 0.000000 -0.000000 -0.000003 0.000000 -0.000000 -30.300130 -7.800355 7.832934 35.805262 -5.314934 -0.423316 23.120100 -0.533013 -7.983589 -0.000000 0.000000 0.000000 -0.000000 0.000000 0.000000 -0.000000 0.000000 0.000000 2.023394 -1.500179 -0.519489 -0.425402 -1.369895 1.945581 -0.400004 -1.341647 1.986076 -9.222572 -1.188502 0.827549 3.746534 2.148445 1.243844 0.000000 0.000000 -0.000000 0.000000 0.000000 -0.000000 0.000000 0.000000 -0.000000 1.081814 1.250591 -3.284612 -4.631956 -10.489163 -76.567875 8.705827 -17.017249 0.273650 0.137936 -9.147320 1.676323 19.963513 3.952059 17.889976 -5.668202 25.781866 -7.048682 0.000001 -0.000002 0.000002 3.701035 -4.972611 -2.617370 -2.157102 2.434002 -10.026415 -0.000001 0.000000 -0.000003 -0.358361 7.635433 -10.105926 0.251982 5.067485 -20.857758 0.000003 -0.000003 -0.000000 -3.871893 11.677924 -7.832176 4.018675 4.038626 -27.896943 -0.000000 0.000000 -0.000000 -5.511241 12.712369 -17.427134 10.699416 2.548762 -26.628604 -0.000001 -0.000000 -0.000000 0.000000 0.000000 0.000001 0.326182 2.629175 7.149238 0.592255 -1.059405 73.944379 11.146042 8.952458 -4.360130 -0.230783 1.720155 -0.479059 15.064413 -6.846955 -14.457777 -6.372753 -24.697643 7.037009 0.000002 -0.000000 0.000003 1.371668 -1.341350 12.677275 -2.151586 -2.434932 15.960009 0.000000 0.000001 0.000000 -2.655922 -4.011086 17.672920 0.253341 -5.063732 23.959656 0.000002 0.000000 -0.000000 -5.059437 -8.769369 16.577830 4.035429 -4.035825 31.857047 0.000001 0.000000 0.000000 -6.378291 -10.164207 25.957425 10.690567 -2.546071 30.243319 0.000001 -0.000001 0.000002 -0.000000 -0.000000 -0.000000 0.000000 0.000000 0.000000 0.000000 0.000000 0.000000 0.000000 0.000000 0.000000 0.000000 0.000000 0.000000 0.000000 0.000000 0.000000 -0.000000 0.000000 0.000000 0.000000 0.000000 0.000000 0.000000 0.000000 0.000000 -0.000000 0.000000 0.000000 -0.000000 0.000000 -0.000000 -0.000000 0.000000 -0.000000 -0.000000 -0.000000 0.000000 
-0.344768 80.982880 84.334976 -3.267706 3.586488 -5.508697 0.000000 0.000000 -0.000000 -3.850649 1.066480 6.783223 37.535875 -15.896569 -1.304163 44.775694 2.794005 -0.757379 -0.000002 -0.000000 -0.000000 -0.000002 -0.000000 0.000000 -0.000001 -0.000000 -0.000000 -25.665553 -9.916977 9.509999 35.809142 -4.527647 -0.359393 20.745620 0.785348 -7.977267 -0.000001 0.000000 -0.000000 -0.000001 0.000000 -0.000000 -0.000001 -0.000000 -0.000001 4.648047 -0.992175 1.945273 -1.103320 -1.303110 1.954444 -1.100195 -1.202575 2.014335 -8.775258 -1.431758 0.556379 3.399089 1.855762 0.949477 0.000000 -0.000000 -0.000000 0.000000 -0.000000 -0.000000 0.000000 -0.000000 -0.000000 1.097667 1.612283 -3.672148 -4.722812 -7.057933 -77.238784 12.911032 -14.512265 -0.099226 0.122458 -7.806099 1.547955 18.892742 3.232603 18.981811 -5.610050 25.871578 -7.050485 0.000002 -0.000001 0.000002 3.460635 -3.939665 -3.565500 -2.153954 2.430490 -11.212869 -0.000001 -0.000001 -0.000002 -0.478632 7.407058 -11.267307 0.252143 5.057825 -22.277509 0.000003 -0.000001 0.000000 -3.945697 11.492300 -8.942604 4.013335 4.030876 -29.246235 -0.000006 -0.000001 -0.000002 -5.571748 12.545682 -18.574302 10.678628 2.543190 -28.007478 -0.000003 0.000000 -0.000004 0.000001 0.000001 -0.000000 0.351479 3.321717 5.983074 -0.559257 -0.338329 74.554793 11.512389 9.595703 -4.418812 -0.185050 2.160374 -0.761620 15.279847 -6.370778 -14.371218 -6.430901 -24.608340 7.036894 0.000001 0.000000 -0.000001 1.429469 -1.208319 11.723545 -2.151177 -2.435245 15.681962 0.000002 -0.000002 0.000003 -2.556549 -4.153035 16.469703 0.253353 -5.066241 23.447939 0.000001 -0.000001 0.000001 -5.021532 -8.884430 15.433060 4.036933 -4.037181 31.416032 -0.000000 -0.000000 0.000004 -6.358249 -10.263858 24.779819 10.695182 -2.547118 29.773539 -0.000002 0.000001 0.000002 0.000001 0.000000 -0.000001 -0.000000 -0.000000 -0.000000 -0.000000 -0.000000 -0.000000 -0.000000 -0.000000 -0.000000 -0.000000 -0.000000 -0.000000 -0.000000 -0.000000 -0.000000 0.000000 -0.000000 -0.000000 -0.000000 -0.000000 -0.000000 -0.000000 -0.000000 -0.000000 0.000000 -0.000000 -0.000000 0.000000 -0.000000 0.000000 0.000000 -0.000000 0.000000 0.000000 0.000000 -0.000000 
-0.416254 81.524361 86.851562 -3.585144 3.733949 -5.943890 0.000000 0.000000 -0.000000 -11.237937 -2.282277 6.293227 48.226801 -13.392099 -1.088996 33.185359 3.306000 4.001322 0.000000 0.000000 0.000000 0.000000 0.000000 0.000001 -0.000003 -0.000000 0.000001 -21.940321 -10.236151 10.161398 34.444804 -3.467257 -0.274780 18.761032 0.973037 -7.964707 0.000002 -0.000000 -0.000000 0.000002 -0.000000 -0.000000 -0.000001 0.000000 -0.000000 6.009187 -0.497159 2.297490 -1.642644 -1.169118 2.143745 -1.646822 -1.015494 2.205097 -8.096372 -1.791251 0.283188 2.885405 1.418275 0.829867 0.000000 0.000000 -0.000000 0.000000 0.000000 -0.000000 0.000000 0.000000 -0.000000 1.104191 1.637273 -3.759337 -4.605005 -4.035584 -78.043244 17.034207 -12.972997 0.021262 0.003841 -5.330733 0.507648 16.630285 1.649048 20.879840 -5.553886 25.958074 -7.052444 0.000002 -0.000001 0.000001 3.001888 -1.868147 -5.430548 -2.149592 2.426580 -13.710209 -0.000004 0.000000 -0.000002 -0.828856 6.896681 -13.359251 0.251993 5.048753 -25.000034 0.000002 -0.000001 -0.000003 -4.174657 11.079029 -11.012652 4.005818 4.023707 -31.900552 -0.000002 -0.000001 -0.000004 -5.767557 12.178720 -20.690516 10.657288 2.539233 -30.690738 0.000003 0.000002 0.000000 0.000000 0.000001 -0.000000 0.425986 4.039709 4.440610 -2.080517 0.452641 75.491219 12.544853 10.333422 -4.726567 -0.158270 2.547439 -0.683560 15.420902 -4.908807 -14.860154 -6.486974 -24.522153 7.036945 -0.000002 0.000001 0.000000 1.657588 -1.387289 9.794732 -2.150909 -2.432426 15.413782 -0.000002 0.000001 0.000004 -2.358418 -4.530944 14.280696 0.253301 -5.068930 22.954259 0.000002 0.000000 0.000001 -4.968124 -9.188984 13.280588 4.038455 -4.038841 30.990491 -0.000001 -0.000000 0.000000 -6.348346 -10.529045 22.587229 10.700295 -2.548359 29.320284 -0.000001 -0.000000 -0.000002 -0.000000 -0.000001 -0.000000 -0.000000 0.000000 0.000000 -0.000000 0.000000 0.000000 -0.000000 0.000000 0.000000 -0.000000 0.000000 0.000000 -0.000000 0.000000 0.000000 -0.000000 0.000000 0.000000 -0.000000 0.000000 0.000000 -0.000000 0.000000 0.000000 -0.000000 0.000000 0.000000 0.000000 0.000000 0.000000 0.000000 0.000000 0.000000 0.000000 0.000000 -0.000000 
